%TF.GenerationSoftware,KiCad,Pcbnew,6.0.7-f9a2dced07~116~ubuntu20.04.1*%
%TF.CreationDate,2022-10-07T18:50:10+02:00*%
%TF.ProjectId,dcf77,64636637-372e-46b6-9963-61645f706362,rev?*%
%TF.SameCoordinates,Original*%
%TF.FileFunction,Paste,Bot*%
%TF.FilePolarity,Positive*%
%FSLAX46Y46*%
G04 Gerber Fmt 4.6, Leading zero omitted, Abs format (unit mm)*
G04 Created by KiCad (PCBNEW 6.0.7-f9a2dced07~116~ubuntu20.04.1) date 2022-10-07 18:50:10*
%MOMM*%
%LPD*%
G01*
G04 APERTURE LIST*
G04 Aperture macros list*
%AMRoundRect*
0 Rectangle with rounded corners*
0 $1 Rounding radius*
0 $2 $3 $4 $5 $6 $7 $8 $9 X,Y pos of 4 corners*
0 Add a 4 corners polygon primitive as box body*
4,1,4,$2,$3,$4,$5,$6,$7,$8,$9,$2,$3,0*
0 Add four circle primitives for the rounded corners*
1,1,$1+$1,$2,$3*
1,1,$1+$1,$4,$5*
1,1,$1+$1,$6,$7*
1,1,$1+$1,$8,$9*
0 Add four rect primitives between the rounded corners*
20,1,$1+$1,$2,$3,$4,$5,0*
20,1,$1+$1,$4,$5,$6,$7,0*
20,1,$1+$1,$6,$7,$8,$9,0*
20,1,$1+$1,$8,$9,$2,$3,0*%
G04 Aperture macros list end*
%ADD10RoundRect,0.218750X0.112544X-0.317568X0.331294X0.061318X-0.112544X0.317568X-0.331294X-0.061318X0*%
%ADD11RoundRect,0.218750X0.078733X-0.327592X0.335889X0.026352X-0.078733X0.327592X-0.335889X-0.026352X0*%
%ADD12RoundRect,0.218750X0.128858X0.311306X-0.287229X0.176111X-0.128858X-0.311306X0.287229X-0.176111X0*%
%ADD13RoundRect,0.218750X-0.287229X-0.176111X0.128858X-0.311306X0.287229X0.176111X-0.128858X0.311306X0*%
%ADD14RoundRect,0.250000X0.250000X1.250000X-0.250000X1.250000X-0.250000X-1.250000X0.250000X-1.250000X0*%
%ADD15RoundRect,0.218750X0.317568X0.112544X-0.061318X0.331294X-0.317568X-0.112544X0.061318X-0.331294X0*%
%ADD16RoundRect,0.218750X-0.044059X0.334028X-0.336803X0.008902X0.044059X-0.334028X0.336803X-0.008902X0*%
%ADD17RoundRect,0.218750X0.176111X-0.287229X0.311306X0.128858X-0.176111X0.287229X-0.311306X-0.128858X0*%
%ADD18RoundRect,0.218750X0.218750X0.256250X-0.218750X0.256250X-0.218750X-0.256250X0.218750X-0.256250X0*%
%ADD19RoundRect,0.218750X0.026352X0.335889X-0.327592X0.078733X-0.026352X-0.335889X0.327592X-0.078733X0*%
%ADD20RoundRect,0.218750X0.205170X-0.267247X0.296131X0.160692X-0.205170X0.267247X-0.296131X-0.160692X0*%
%ADD21RoundRect,0.218750X0.331294X-0.061318X0.112544X0.317568X-0.331294X0.061318X-0.112544X-0.317568X0*%
%ADD22RoundRect,0.218750X-0.334028X-0.044059X-0.008902X-0.336803X0.334028X0.044059X0.008902X0.336803X0*%
%ADD23RoundRect,0.218750X0.256250X-0.218750X0.256250X0.218750X-0.256250X0.218750X-0.256250X-0.218750X0*%
%ADD24RoundRect,0.218750X0.336803X0.008902X0.044059X0.334028X-0.336803X-0.008902X-0.044059X-0.334028X0*%
%ADD25RoundRect,0.218750X0.190766X0.277712X-0.244337X0.231981X-0.190766X-0.277712X0.244337X-0.231981X0*%
%ADD26RoundRect,0.218750X0.334028X0.044059X0.008902X0.336803X-0.334028X-0.044059X-0.008902X-0.336803X0*%
%ADD27RoundRect,0.218750X0.304064X0.145122X-0.095612X0.323070X-0.304064X-0.145122X0.095612X-0.323070X0*%
%ADD28RoundRect,0.218750X-0.218750X-0.256250X0.218750X-0.256250X0.218750X0.256250X-0.218750X0.256250X0*%
%ADD29RoundRect,0.218750X-0.176111X0.287229X-0.311306X-0.128858X0.176111X-0.287229X0.311306X0.128858X0*%
%ADD30RoundRect,0.218750X0.277712X-0.190766X0.231981X0.244337X-0.277712X0.190766X-0.231981X-0.244337X0*%
%ADD31RoundRect,0.218750X-0.008902X0.336803X-0.334028X0.044059X0.008902X-0.336803X0.334028X-0.044059X0*%
%ADD32RoundRect,0.218750X-0.128858X-0.311306X0.287229X-0.176111X0.128858X0.311306X-0.287229X0.176111X0*%
%ADD33RoundRect,0.218750X0.296131X-0.160692X0.205170X0.267247X-0.296131X0.160692X-0.205170X-0.267247X0*%
%ADD34RoundRect,0.218750X-0.311306X0.128858X-0.176111X-0.287229X0.311306X-0.128858X0.176111X0.287229X0*%
%ADD35RoundRect,0.218750X0.160692X0.296131X-0.267247X0.205170X-0.160692X-0.296131X0.267247X-0.205170X0*%
%ADD36RoundRect,0.218750X-0.190766X-0.277712X0.244337X-0.231981X0.190766X0.277712X-0.244337X0.231981X0*%
%ADD37RoundRect,0.218750X0.008902X-0.336803X0.334028X-0.044059X-0.008902X0.336803X-0.334028X0.044059X0*%
%ADD38RoundRect,0.218750X0.327592X0.078733X-0.026352X0.335889X-0.327592X-0.078733X0.026352X-0.335889X0*%
%ADD39RoundRect,0.218750X-0.145122X0.304064X-0.323070X-0.095612X0.145122X-0.304064X0.323070X0.095612X0*%
%ADD40RoundRect,0.218750X-0.244337X-0.231981X0.190766X-0.277712X0.244337X0.231981X-0.190766X0.277712X0*%
%ADD41RoundRect,0.218750X-0.026352X-0.335889X0.327592X-0.078733X0.026352X0.335889X-0.327592X0.078733X0*%
%ADD42RoundRect,0.218750X-0.277712X0.190766X-0.231981X-0.244337X0.277712X-0.190766X0.231981X0.244337X0*%
%ADD43RoundRect,0.218750X-0.095612X-0.323070X0.304064X-0.145122X0.095612X0.323070X-0.304064X0.145122X0*%
%ADD44RoundRect,0.218750X0.095612X0.323070X-0.304064X0.145122X-0.095612X-0.323070X0.304064X-0.145122X0*%
%ADD45RoundRect,0.218750X-0.112544X0.317568X-0.331294X-0.061318X0.112544X-0.317568X0.331294X0.061318X0*%
%ADD46RoundRect,0.218750X-0.160692X-0.296131X0.267247X-0.205170X0.160692X0.296131X-0.267247X0.205170X0*%
%ADD47RoundRect,0.218750X0.061318X0.331294X-0.317568X0.112544X-0.061318X-0.331294X0.317568X-0.112544X0*%
%ADD48RoundRect,0.218750X-0.078733X0.327592X-0.335889X-0.026352X0.078733X-0.327592X0.335889X0.026352X0*%
%ADD49RoundRect,0.218750X-0.331294X0.061318X-0.112544X-0.317568X0.331294X-0.061318X0.112544X0.317568X0*%
%ADD50RoundRect,0.218750X-0.327592X-0.078733X0.026352X-0.335889X0.327592X0.078733X-0.026352X0.335889X0*%
%ADD51RoundRect,0.218750X-0.317568X-0.112544X0.061318X-0.331294X0.317568X0.112544X-0.061318X0.331294X0*%
%ADD52RoundRect,0.218750X0.145122X-0.304064X0.323070X0.095612X-0.145122X0.304064X-0.323070X-0.095612X0*%
%ADD53RoundRect,0.218750X-0.304064X-0.145122X0.095612X-0.323070X0.304064X0.145122X-0.095612X0.323070X0*%
%ADD54RoundRect,0.218750X0.311306X-0.128858X0.176111X0.287229X-0.311306X0.128858X-0.176111X-0.287229X0*%
%ADD55RoundRect,0.218750X-0.296131X0.160692X-0.205170X-0.267247X0.296131X-0.160692X0.205170X0.267247X0*%
%ADD56RoundRect,0.218750X0.323070X-0.095612X0.145122X0.304064X-0.323070X0.095612X-0.145122X-0.304064X0*%
%ADD57RoundRect,0.218750X0.267247X0.205170X-0.160692X0.296131X-0.267247X-0.205170X0.160692X-0.296131X0*%
%ADD58RoundRect,0.218750X0.287229X0.176111X-0.128858X0.311306X-0.287229X-0.176111X0.128858X-0.311306X0*%
%ADD59RoundRect,0.218750X0.335889X-0.026352X0.078733X0.327592X-0.335889X0.026352X-0.078733X-0.327592X0*%
%ADD60RoundRect,0.218750X0.044059X-0.334028X0.336803X-0.008902X-0.044059X0.334028X-0.336803X0.008902X0*%
%ADD61RoundRect,0.218750X0.231981X-0.244337X0.277712X0.190766X-0.231981X0.244337X-0.277712X-0.190766X0*%
%ADD62RoundRect,0.218750X-0.336803X-0.008902X-0.044059X-0.334028X0.336803X0.008902X0.044059X0.334028X0*%
%ADD63RoundRect,0.218750X-0.205170X0.267247X-0.296131X-0.160692X0.205170X-0.267247X0.296131X0.160692X0*%
%ADD64RoundRect,0.218750X-0.256250X0.218750X-0.256250X-0.218750X0.256250X-0.218750X0.256250X0.218750X0*%
%ADD65RoundRect,0.218750X0.244337X0.231981X-0.190766X0.277712X-0.244337X-0.231981X0.190766X-0.277712X0*%
%ADD66RoundRect,0.218750X-0.335889X0.026352X-0.078733X-0.327592X0.335889X-0.026352X0.078733X0.327592X0*%
%ADD67RoundRect,0.218750X-0.267247X-0.205170X0.160692X-0.296131X0.267247X0.205170X-0.160692X0.296131X0*%
%ADD68RoundRect,0.218750X-0.231981X0.244337X-0.277712X-0.190766X0.231981X-0.244337X0.277712X0.190766X0*%
%ADD69RoundRect,0.218750X-0.323070X0.095612X-0.145122X-0.304064X0.323070X-0.095612X0.145122X0.304064X0*%
%ADD70RoundRect,0.218750X-0.061318X-0.331294X0.317568X-0.112544X0.061318X0.331294X-0.317568X0.112544X0*%
G04 APERTURE END LIST*
D10*
%TO.C,D356*%
X137606250Y-97681995D03*
X138393750Y-96318005D03*
%TD*%
D11*
%TO.C,D355*%
X140137119Y-99337101D03*
X141062881Y-98062899D03*
%TD*%
D12*
%TO.C,D249*%
X147548957Y-115056649D03*
X146051043Y-115543351D03*
%TD*%
D13*
%TO.C,D343*%
X150851043Y-132056649D03*
X152348957Y-132543351D03*
%TD*%
D14*
%TO.C,AFF406*%
X58070000Y-78740000D03*
X56570000Y-78740000D03*
X55070000Y-78740000D03*
X53570000Y-78740000D03*
X52070000Y-78740000D03*
X52070000Y-68140000D03*
X53570000Y-68140000D03*
X55070000Y-68140000D03*
X56570000Y-68140000D03*
X58070000Y-68140000D03*
%TD*%
D15*
%TO.C,D241*%
X145281995Y-135893750D03*
X143918005Y-135106250D03*
%TD*%
D16*
%TO.C,D254*%
X140226940Y-103814773D03*
X139173060Y-104985227D03*
%TD*%
D12*
%TO.C,D319*%
X95148957Y-132056649D03*
X93651043Y-132543351D03*
%TD*%
D17*
%TO.C,D358*%
X132056649Y-95248957D03*
X132543351Y-93751043D03*
%TD*%
D18*
%TO.C,D316*%
X93787500Y-123000000D03*
X92212500Y-123000000D03*
%TD*%
D19*
%TO.C,D322*%
X99337101Y-140237119D03*
X98062899Y-141162881D03*
%TD*%
D20*
%TO.C,D359*%
X129136270Y-94370291D03*
X129463730Y-92829709D03*
%TD*%
D21*
%TO.C,D306*%
X108393750Y-97681995D03*
X107606250Y-96318005D03*
%TD*%
D22*
%TO.C,D339*%
X144714773Y-142573060D03*
X145885227Y-143626940D03*
%TD*%
D23*
%TO.C,D504*%
X123000000Y-123787500D03*
X123000000Y-122212500D03*
%TD*%
D24*
%TO.C,D238*%
X140226940Y-142185227D03*
X139173060Y-141014773D03*
%TD*%
D25*
%TO.C,D317*%
X93983186Y-126017684D03*
X92416814Y-126182316D03*
%TD*%
D26*
%TO.C,D309*%
X101285227Y-103426940D03*
X100114773Y-102373060D03*
%TD*%
D27*
%TO.C,D312*%
X96319417Y-111120305D03*
X94880583Y-110479695D03*
%TD*%
D28*
%TO.C,D346*%
X152212500Y-123000000D03*
X153787500Y-123000000D03*
%TD*%
D29*
%TO.C,D328*%
X113943351Y-150851043D03*
X113456649Y-152348957D03*
%TD*%
D30*
%TO.C,D232*%
X125682316Y-148683186D03*
X125517684Y-147116814D03*
%TD*%
D18*
%TO.C,D401*%
X68885000Y-142240000D03*
X67310000Y-142240000D03*
%TD*%
D31*
%TO.C,D323*%
X101285227Y-142573060D03*
X100114773Y-143626940D03*
%TD*%
D22*
%TO.C,D209*%
X103814773Y-105773060D03*
X104985227Y-106826940D03*
%TD*%
D18*
%TO.C,D407*%
X68885000Y-165100000D03*
X67310000Y-165100000D03*
%TD*%
D32*
%TO.C,D349*%
X150851043Y-113943351D03*
X152348957Y-113456649D03*
%TD*%
D14*
%TO.C,AFF419*%
X35210000Y-132080000D03*
X33710000Y-132080000D03*
X32210000Y-132080000D03*
X30710000Y-132080000D03*
X29210000Y-132080000D03*
X29210000Y-121480000D03*
X30710000Y-121480000D03*
X32210000Y-121480000D03*
X33710000Y-121480000D03*
X35210000Y-121480000D03*
%TD*%
D33*
%TO.C,D303*%
X116963730Y-94470291D03*
X116636270Y-92929709D03*
%TD*%
D34*
%TO.C,D334*%
X132056649Y-150751043D03*
X132543351Y-152248957D03*
%TD*%
D35*
%TO.C,D318*%
X94470291Y-129036270D03*
X92929709Y-129363730D03*
%TD*%
D18*
%TO.C,D403*%
X68885000Y-149860000D03*
X67310000Y-149860000D03*
%TD*%
D31*
%TO.C,D253*%
X142185227Y-105773060D03*
X141014773Y-106826940D03*
%TD*%
D36*
%TO.C,D217*%
X97316814Y-125682316D03*
X98883186Y-125517684D03*
%TD*%
D37*
%TO.C,D353*%
X144714773Y-103426940D03*
X145885227Y-102373060D03*
%TD*%
D14*
%TO.C,AFF411*%
X35210000Y-52070000D03*
X33710000Y-52070000D03*
X32210000Y-52070000D03*
X30710000Y-52070000D03*
X29210000Y-52070000D03*
X29210000Y-41470000D03*
X30710000Y-41470000D03*
X32210000Y-41470000D03*
X33710000Y-41470000D03*
X35210000Y-41470000D03*
%TD*%
D38*
%TO.C,D240*%
X143837101Y-138162881D03*
X142562899Y-137237119D03*
%TD*%
D39*
%TO.C,D257*%
X133520305Y-99380583D03*
X132879695Y-100819417D03*
%TD*%
D40*
%TO.C,D215*%
X97316814Y-120317684D03*
X98883186Y-120482316D03*
%TD*%
D23*
%TO.C,D301*%
X123000000Y-93787500D03*
X123000000Y-92212500D03*
%TD*%
D41*
%TO.C,D352*%
X146662899Y-105862881D03*
X147937101Y-104937119D03*
%TD*%
D42*
%TO.C,D202*%
X120317684Y-97316814D03*
X120482316Y-98883186D03*
%TD*%
D43*
%TO.C,D220*%
X99480583Y-133520305D03*
X100919417Y-132879695D03*
%TD*%
D30*
%TO.C,D302*%
X119982316Y-93983186D03*
X119817684Y-92416814D03*
%TD*%
D44*
%TO.C,D250*%
X146619417Y-112479695D03*
X145180583Y-113120305D03*
%TD*%
D45*
%TO.C,D326*%
X108393750Y-148318005D03*
X107606250Y-149681995D03*
%TD*%
D18*
%TO.C,D404*%
X68885000Y-153670000D03*
X67310000Y-153670000D03*
%TD*%
D46*
%TO.C,D218*%
X97729709Y-128363730D03*
X99270291Y-128036270D03*
%TD*%
D47*
%TO.C,D251*%
X145381995Y-110106250D03*
X144018005Y-110893750D03*
%TD*%
D48*
%TO.C,D325*%
X105862881Y-146662899D03*
X104937119Y-147937101D03*
%TD*%
D49*
%TO.C,D206*%
X110106250Y-100618005D03*
X110893750Y-101981995D03*
%TD*%
D28*
%TO.C,D216*%
X97212500Y-123000000D03*
X98787500Y-123000000D03*
%TD*%
D50*
%TO.C,D340*%
X146662899Y-140137119D03*
X147937101Y-141062881D03*
%TD*%
D51*
%TO.C,D341*%
X148318005Y-137606250D03*
X149681995Y-138393750D03*
%TD*%
D18*
%TO.C,D405*%
X68885000Y-157480000D03*
X67310000Y-157480000D03*
%TD*%
D52*
%TO.C,D227*%
X112479695Y-146519417D03*
X113120305Y-145080583D03*
%TD*%
D14*
%TO.C,AFF403*%
X65690000Y-52070000D03*
X64190000Y-52070000D03*
X62690000Y-52070000D03*
X61190000Y-52070000D03*
X59690000Y-52070000D03*
X59690000Y-41470000D03*
X61190000Y-41470000D03*
X62690000Y-41470000D03*
X64190000Y-41470000D03*
X65690000Y-41470000D03*
%TD*%
D24*
%TO.C,D308*%
X103426940Y-101285227D03*
X102373060Y-100114773D03*
%TD*%
D53*
%TO.C,D212*%
X99380583Y-112479695D03*
X100819417Y-113120305D03*
%TD*%
D54*
%TO.C,D234*%
X130943351Y-147548957D03*
X130456649Y-146051043D03*
%TD*%
D44*
%TO.C,D320*%
X96319417Y-134879695D03*
X94880583Y-135520305D03*
%TD*%
D14*
%TO.C,AFF409*%
X42830000Y-52070000D03*
X41330000Y-52070000D03*
X39830000Y-52070000D03*
X38330000Y-52070000D03*
X36830000Y-52070000D03*
X36830000Y-41470000D03*
X38330000Y-41470000D03*
X39830000Y-41470000D03*
X41330000Y-41470000D03*
X42830000Y-41470000D03*
%TD*%
D18*
%TO.C,D409*%
X53137000Y-146050000D03*
X51562000Y-146050000D03*
%TD*%
D16*
%TO.C,D324*%
X103426940Y-144714773D03*
X102373060Y-145885227D03*
%TD*%
D45*
%TO.C,D256*%
X135893750Y-100718005D03*
X135106250Y-102081995D03*
%TD*%
D55*
%TO.C,D333*%
X129036270Y-151529709D03*
X129363730Y-153070291D03*
%TD*%
D49*
%TO.C,D336*%
X137606250Y-148318005D03*
X138393750Y-149681995D03*
%TD*%
D20*
%TO.C,D229*%
X117636270Y-148170291D03*
X117963730Y-146629709D03*
%TD*%
D54*
%TO.C,D304*%
X113943351Y-95148957D03*
X113456649Y-93651043D03*
%TD*%
D52*
%TO.C,D357*%
X134879695Y-96319417D03*
X135520305Y-94880583D03*
%TD*%
D14*
%TO.C,AFF414*%
X50450000Y-105410000D03*
X48950000Y-105410000D03*
X47450000Y-105410000D03*
X45950000Y-105410000D03*
X44450000Y-105410000D03*
X44450000Y-94810000D03*
X45950000Y-94810000D03*
X47450000Y-94810000D03*
X48950000Y-94810000D03*
X50450000Y-94810000D03*
%TD*%
D46*
%TO.C,D348*%
X151529709Y-116963730D03*
X153070291Y-116636270D03*
%TD*%
D56*
%TO.C,D305*%
X111120305Y-96319417D03*
X110479695Y-94880583D03*
%TD*%
D15*
%TO.C,D311*%
X97681995Y-108393750D03*
X96318005Y-107606250D03*
%TD*%
D14*
%TO.C,AFF412*%
X35210000Y-78740000D03*
X33710000Y-78740000D03*
X32210000Y-78740000D03*
X30710000Y-78740000D03*
X29210000Y-78740000D03*
X29210000Y-68140000D03*
X30710000Y-68140000D03*
X32210000Y-68140000D03*
X33710000Y-68140000D03*
X35210000Y-68140000D03*
%TD*%
D18*
%TO.C,D408*%
X53137000Y-142240000D03*
X51562000Y-142240000D03*
%TD*%
D53*
%TO.C,D342*%
X149680583Y-134879695D03*
X151119417Y-135520305D03*
%TD*%
D57*
%TO.C,D314*%
X94470291Y-116963730D03*
X92929709Y-116636270D03*
%TD*%
D19*
%TO.C,D252*%
X143837101Y-107837119D03*
X142562899Y-108762881D03*
%TD*%
D58*
%TO.C,D243*%
X147548957Y-130943351D03*
X146051043Y-130456649D03*
%TD*%
%TO.C,D313*%
X95148957Y-113943351D03*
X93651043Y-113456649D03*
%TD*%
D59*
%TO.C,D237*%
X138162881Y-143837101D03*
X137237119Y-142562899D03*
%TD*%
D56*
%TO.C,D235*%
X133520305Y-146519417D03*
X132879695Y-145080583D03*
%TD*%
D14*
%TO.C,AFF408*%
X50450000Y-78740000D03*
X48950000Y-78740000D03*
X47450000Y-78740000D03*
X45950000Y-78740000D03*
X44450000Y-78740000D03*
X44450000Y-68140000D03*
X45950000Y-68140000D03*
X47450000Y-68140000D03*
X48950000Y-68140000D03*
X50450000Y-68140000D03*
%TD*%
D60*
%TO.C,D354*%
X142573060Y-101285227D03*
X143626940Y-100114773D03*
%TD*%
D32*
%TO.C,D219*%
X98451043Y-130943351D03*
X99948957Y-130456649D03*
%TD*%
D18*
%TO.C,D246*%
X148787500Y-123000000D03*
X147212500Y-123000000D03*
%TD*%
%TO.C,D406*%
X68885000Y-161290000D03*
X67310000Y-161290000D03*
%TD*%
D37*
%TO.C,D223*%
X103814773Y-140226940D03*
X104985227Y-139173060D03*
%TD*%
D23*
%TO.C,D231*%
X123000000Y-148787500D03*
X123000000Y-147212500D03*
%TD*%
D61*
%TO.C,D230*%
X120335370Y-148666370D03*
X120500002Y-147099998D03*
%TD*%
D14*
%TO.C,AFF415*%
X42830000Y-105410000D03*
X41330000Y-105410000D03*
X39830000Y-105410000D03*
X38330000Y-105410000D03*
X36830000Y-105410000D03*
X36830000Y-94810000D03*
X38330000Y-94810000D03*
X39830000Y-94810000D03*
X41330000Y-94810000D03*
X42830000Y-94810000D03*
%TD*%
D34*
%TO.C,D204*%
X115056649Y-98451043D03*
X115543351Y-99948957D03*
%TD*%
D27*
%TO.C,D242*%
X146619417Y-133520305D03*
X145180583Y-132879695D03*
%TD*%
D14*
%TO.C,AFF420*%
X35210000Y-157480000D03*
X33710000Y-157480000D03*
X32210000Y-157480000D03*
X30710000Y-157480000D03*
X29210000Y-157480000D03*
X29210000Y-146880000D03*
X30710000Y-146880000D03*
X32210000Y-146880000D03*
X33710000Y-146880000D03*
X35210000Y-146880000D03*
%TD*%
D11*
%TO.C,D225*%
X107837119Y-143837101D03*
X108762881Y-142562899D03*
%TD*%
D50*
%TO.C,D210*%
X102162899Y-107837119D03*
X103437101Y-108762881D03*
%TD*%
D13*
%TO.C,D213*%
X98551043Y-115056649D03*
X100048957Y-115543351D03*
%TD*%
D18*
%TO.C,D503*%
X53137000Y-165100000D03*
X51562000Y-165100000D03*
%TD*%
D62*
%TO.C,D208*%
X105673060Y-103814773D03*
X106726940Y-104985227D03*
%TD*%
D14*
%TO.C,AFF402*%
X73310000Y-78740000D03*
X71810000Y-78740000D03*
X70310000Y-78740000D03*
X68810000Y-78740000D03*
X67310000Y-78740000D03*
X67310000Y-68140000D03*
X68810000Y-68140000D03*
X70310000Y-68140000D03*
X71810000Y-68140000D03*
X73310000Y-68140000D03*
%TD*%
D18*
%TO.C,D410*%
X53137000Y-149860000D03*
X51562000Y-149860000D03*
%TD*%
D60*
%TO.C,D224*%
X105773060Y-142185227D03*
X106826940Y-141014773D03*
%TD*%
D63*
%TO.C,D329*%
X116963730Y-151529709D03*
X116636270Y-153070291D03*
%TD*%
D33*
%TO.C,D233*%
X128363730Y-148270291D03*
X128036270Y-146729709D03*
%TD*%
D55*
%TO.C,D203*%
X117636270Y-97729709D03*
X117963730Y-99270291D03*
%TD*%
D47*
%TO.C,D321*%
X97681995Y-137606250D03*
X96318005Y-138393750D03*
%TD*%
D18*
%TO.C,D413*%
X53137000Y-161290000D03*
X51562000Y-161290000D03*
%TD*%
%TO.C,D402*%
X68885000Y-146050000D03*
X67310000Y-146050000D03*
%TD*%
D14*
%TO.C,AFF407*%
X50450000Y-52070000D03*
X48950000Y-52070000D03*
X47450000Y-52070000D03*
X45950000Y-52070000D03*
X44450000Y-52070000D03*
X44450000Y-41470000D03*
X45950000Y-41470000D03*
X47450000Y-41470000D03*
X48950000Y-41470000D03*
X50450000Y-41470000D03*
%TD*%
%TO.C,AFF417*%
X50450000Y-132080000D03*
X48950000Y-132080000D03*
X47450000Y-132080000D03*
X45950000Y-132080000D03*
X44450000Y-132080000D03*
X44450000Y-121480000D03*
X45950000Y-121480000D03*
X47450000Y-121480000D03*
X48950000Y-121480000D03*
X50450000Y-121480000D03*
%TD*%
%TO.C,AFF410*%
X42830000Y-78740000D03*
X41330000Y-78740000D03*
X39830000Y-78740000D03*
X38330000Y-78740000D03*
X36830000Y-78740000D03*
X36830000Y-68140000D03*
X38330000Y-68140000D03*
X39830000Y-68140000D03*
X41330000Y-68140000D03*
X42830000Y-68140000D03*
%TD*%
D42*
%TO.C,D332*%
X126017684Y-152016814D03*
X126182316Y-153583186D03*
%TD*%
D64*
%TO.C,D331*%
X123000000Y-152212500D03*
X123000000Y-153787500D03*
%TD*%
D14*
%TO.C,AFF418*%
X42830000Y-132080000D03*
X41330000Y-132080000D03*
X39830000Y-132080000D03*
X38330000Y-132080000D03*
X36830000Y-132080000D03*
X36830000Y-121480000D03*
X38330000Y-121480000D03*
X39830000Y-121480000D03*
X41330000Y-121480000D03*
X42830000Y-121480000D03*
%TD*%
D21*
%TO.C,D236*%
X135893750Y-145281995D03*
X135106250Y-143918005D03*
%TD*%
D18*
%TO.C,D412*%
X53137000Y-157480000D03*
X51562000Y-157480000D03*
%TD*%
D14*
%TO.C,AFF405*%
X58070000Y-52070000D03*
X56570000Y-52070000D03*
X55070000Y-52070000D03*
X53570000Y-52070000D03*
X52070000Y-52070000D03*
X52070000Y-41470000D03*
X53570000Y-41470000D03*
X55070000Y-41470000D03*
X56570000Y-41470000D03*
X58070000Y-41470000D03*
%TD*%
D35*
%TO.C,D248*%
X148270291Y-117636270D03*
X146729709Y-117963730D03*
%TD*%
D63*
%TO.C,D259*%
X128363730Y-97729709D03*
X128036270Y-99270291D03*
%TD*%
D48*
%TO.C,D255*%
X138162881Y-102162899D03*
X137237119Y-103437101D03*
%TD*%
D65*
%TO.C,D315*%
X93983186Y-119982316D03*
X92416814Y-119817684D03*
%TD*%
D41*
%TO.C,D222*%
X102162899Y-138162881D03*
X103437101Y-137237119D03*
%TD*%
D64*
%TO.C,D201*%
X123000000Y-97212500D03*
X123000000Y-98787500D03*
%TD*%
D66*
%TO.C,D207*%
X107837119Y-102162899D03*
X108762881Y-103437101D03*
%TD*%
D59*
%TO.C,D307*%
X105762881Y-99337101D03*
X104837119Y-98062899D03*
%TD*%
D14*
%TO.C,AFF416*%
X35210000Y-105410000D03*
X33710000Y-105410000D03*
X32210000Y-105410000D03*
X30710000Y-105410000D03*
X29210000Y-105410000D03*
X29210000Y-94810000D03*
X30710000Y-94810000D03*
X32210000Y-94810000D03*
X33710000Y-94810000D03*
X35210000Y-94810000D03*
%TD*%
D36*
%TO.C,D347*%
X152016814Y-119982316D03*
X153583186Y-119817684D03*
%TD*%
D43*
%TO.C,D350*%
X149680583Y-111120305D03*
X151119417Y-110479695D03*
%TD*%
D66*
%TO.C,D337*%
X140237119Y-146662899D03*
X141162881Y-147937101D03*
%TD*%
D25*
%TO.C,D247*%
X148683186Y-120317684D03*
X147116814Y-120482316D03*
%TD*%
D51*
%TO.C,D211*%
X100618005Y-110106250D03*
X101981995Y-110893750D03*
%TD*%
D26*
%TO.C,D239*%
X142185227Y-140226940D03*
X141014773Y-139173060D03*
%TD*%
D18*
%TO.C,D411*%
X53137000Y-153670000D03*
X51562000Y-153670000D03*
%TD*%
D14*
%TO.C,AFF401*%
X73310000Y-52070000D03*
X71810000Y-52070000D03*
X70310000Y-52070000D03*
X68810000Y-52070000D03*
X67310000Y-52070000D03*
X67310000Y-41470000D03*
X68810000Y-41470000D03*
X70310000Y-41470000D03*
X71810000Y-41470000D03*
X73310000Y-41470000D03*
%TD*%
D17*
%TO.C,D228*%
X115056649Y-147548957D03*
X115543351Y-146051043D03*
%TD*%
D10*
%TO.C,D226*%
X110106250Y-145281995D03*
X110893750Y-143918005D03*
%TD*%
D14*
%TO.C,AFF404*%
X65690000Y-78740000D03*
X64190000Y-78740000D03*
X62690000Y-78740000D03*
X61190000Y-78740000D03*
X59690000Y-78740000D03*
X59690000Y-68140000D03*
X61190000Y-68140000D03*
X62690000Y-68140000D03*
X64190000Y-68140000D03*
X65690000Y-68140000D03*
%TD*%
D62*
%TO.C,D338*%
X142573060Y-144714773D03*
X143626940Y-145885227D03*
%TD*%
D39*
%TO.C,D327*%
X111120305Y-149680583D03*
X110479695Y-151119417D03*
%TD*%
D65*
%TO.C,D245*%
X148683186Y-125682316D03*
X147116814Y-125517684D03*
%TD*%
D67*
%TO.C,D344*%
X151629709Y-129036270D03*
X153170291Y-129363730D03*
%TD*%
D68*
%TO.C,D330*%
X119982316Y-152016814D03*
X119817684Y-153583186D03*
%TD*%
D69*
%TO.C,D205*%
X112479695Y-99380583D03*
X113120305Y-100819417D03*
%TD*%
D70*
%TO.C,D221*%
X100618005Y-135893750D03*
X101981995Y-135106250D03*
%TD*%
D69*
%TO.C,D335*%
X134879695Y-149680583D03*
X135520305Y-151119417D03*
%TD*%
D57*
%TO.C,D244*%
X148270291Y-128363730D03*
X146729709Y-128036270D03*
%TD*%
D70*
%TO.C,D351*%
X148318005Y-108393750D03*
X149681995Y-107606250D03*
%TD*%
D29*
%TO.C,D258*%
X130943351Y-98451043D03*
X130456649Y-99948957D03*
%TD*%
D14*
%TO.C,AFF413*%
X58070000Y-105410000D03*
X56570000Y-105410000D03*
X55070000Y-105410000D03*
X53570000Y-105410000D03*
X52070000Y-105410000D03*
X52070000Y-94810000D03*
X53570000Y-94810000D03*
X55070000Y-94810000D03*
X56570000Y-94810000D03*
X58070000Y-94810000D03*
%TD*%
D40*
%TO.C,D345*%
X152016814Y-126017684D03*
X153583186Y-126182316D03*
%TD*%
D67*
%TO.C,D214*%
X97829709Y-117636270D03*
X99370291Y-117963730D03*
%TD*%
D38*
%TO.C,D310*%
X99437101Y-105862881D03*
X98162899Y-104937119D03*
%TD*%
M02*
