M48
; DRILL file {KiCad 6.0.7-f9a2dced07~116~ubuntu20.04.1} date Fr 07 Okt 2022 18:50:19 CEST
; FORMAT={-:-/ absolute / inch / decimal}
; #@! TF.CreationDate,2022-10-07T18:50:19+02:00
; #@! TF.GenerationSoftware,Kicad,Pcbnew,6.0.7-f9a2dced07~116~ubuntu20.04.1
; #@! TF.FileFunction,MixedPlating,1,4
FMAT,2
INCH
; #@! TA.AperFunction,Plated,PTH,ViaDrill
T1C0.0079
; #@! TA.AperFunction,Plated,PTH,ViaDrill
T2C0.0118
; #@! TA.AperFunction,Plated,PTH,ViaDrill
T3C0.0157
; #@! TA.AperFunction,Plated,PTH,ComponentDrill
T4C0.0362
; #@! TA.AperFunction,Plated,PTH,ComponentDrill
T5C0.0394
; #@! TA.AperFunction,Plated,PTH,ComponentDrill
T6C0.0917
; #@! TA.AperFunction,Plated,PTH,ComponentDrill
T7C0.1260
%
G90
G05
T1
X0.88Y-4.04
X0.88Y-5.1
X0.88Y-6.09
X0.91Y-4.01
X0.91Y-5.07
X0.91Y-6.06
X0.94Y-3.98
X0.94Y-5.04
X0.94Y-6.03
X0.97Y-3.95
X0.97Y-5.01
X0.97Y-6.0
X1.0Y-3.92
X1.0Y-4.98
X1.0Y-5.97
X1.03Y-3.89
X1.03Y-4.95
X1.03Y-5.94
X1.06Y-3.86
X1.06Y-4.92
X1.06Y-5.91
X1.09Y-3.83
X1.09Y-4.89
X1.09Y-5.88
X1.15Y-1.82
X1.15Y-1.85
X1.15Y-2.89
X1.15Y-2.92
X1.15Y-3.83
X1.15Y-3.95
X1.15Y-4.89
X1.15Y-5.01
X1.15Y-5.88
X1.15Y-6.0
X1.21Y-1.79
X1.21Y-1.88
X1.21Y-2.86
X1.21Y-2.95
X1.21Y-3.86
X1.21Y-3.98
X1.21Y-4.9185
X1.21Y-5.04
X1.21Y-5.91
X1.21Y-6.03
X1.2697Y-4.5497
X1.27Y-5.35
X1.3Y-4.55
X1.32Y-6.06
X1.33Y-1.76
X1.33Y-1.91
X1.33Y-2.83
X1.33Y-2.98
X1.33Y-3.89
X1.33Y-4.01
X1.33Y-4.95
X1.33Y-5.07
X1.33Y-5.94
X1.38Y-4.04
X1.38Y-5.97
X1.38Y-6.09
X1.39Y-1.73
X1.39Y-1.94
X1.39Y-2.8
X1.39Y-3.01
X1.39Y-3.92
X1.39Y-4.98
X1.39Y-5.1
X1.45Y-1.82
X1.45Y-1.85
X1.45Y-2.89
X1.45Y-2.92
X1.45Y-3.83
X1.45Y-3.95
X1.45Y-4.89
X1.45Y-5.01
X1.51Y-1.79
X1.51Y-1.88
X1.51Y-2.86
X1.51Y-2.95
X1.51Y-3.86
X1.51Y-3.98
X1.51Y-4.92
X1.51Y-5.04
X1.5681Y-4.8619
X1.57Y-4.59
X1.63Y-1.76
X1.63Y-1.91
X1.63Y-2.83
X1.63Y-2.98
X1.63Y-3.89
X1.63Y-4.01
X1.63Y-4.95
X1.63Y-5.07
X1.68Y-3.92
X1.68Y-4.98
X1.68Y-5.1
X1.69Y-1.73
X1.69Y-1.94
X1.69Y-2.8
X1.69Y-3.01
X1.69Y-4.04
X1.7Y-2.32
X1.71Y-3.33
X1.7284Y-1.7084
X1.7284Y-2.7784
X1.75Y-1.82
X1.75Y-1.85
X1.75Y-2.22
X1.75Y-2.89
X1.75Y-2.92
X1.75Y-3.83
X1.75Y-3.95
X1.75Y-4.89
X1.75Y-5.01
X1.76Y-3.27
X1.78Y-1.7084
X1.78Y-2.7784
X1.8Y-2.25
X1.81Y-1.79
X1.81Y-1.88
X1.81Y-2.86
X1.81Y-2.95
X1.81Y-3.22
X1.81Y-3.86
X1.81Y-3.98
X1.81Y-4.92
X1.81Y-5.04
X1.8307Y-1.7084
X1.84Y-1.94
X1.84Y-2.7784
X1.84Y-3.01
X1.87Y-4.25
X1.87Y-4.45
X1.89Y-1.7084
X1.89Y-1.88
X1.9Y-2.7784
X1.9Y-2.95
X1.92Y-3.89
X1.92Y-4.95
X1.93Y-1.76
X1.93Y-1.91
X1.93Y-2.51
X1.93Y-2.83
X1.93Y-2.98
X1.93Y-4.01
X1.93Y-5.07
X1.94Y-1.45
X1.96Y-2.19
X1.96Y-3.24
X1.98Y-1.94
X1.98Y-3.92
X1.98Y-4.98
X1.98Y-5.1
X1.99Y-1.73
X1.99Y-2.8
X1.99Y-3.01
X1.99Y-4.04
X2.0Y-2.15
X2.0Y-3.2
X2.02Y-2.51
X2.03Y-1.45
X2.03Y-5.65
X2.03Y-5.8
X2.03Y-5.95
X2.03Y-6.1
X2.03Y-6.25
X2.03Y-6.4
X2.03Y-6.55
X2.05Y-1.82
X2.05Y-1.85
X2.05Y-2.89
X2.05Y-2.92
X2.05Y-3.83
X2.05Y-3.95
X2.08Y-1.7084
X2.08Y-2.7784
X2.11Y-1.79
X2.11Y-1.88
X2.11Y-2.86
X2.11Y-2.95
X2.11Y-3.86
X2.11Y-3.98
X2.13Y-5.56
X2.13Y-5.71
X2.13Y-5.86
X2.13Y-6.01
X2.13Y-6.16
X2.13Y-6.31
X2.13Y-6.46
X2.14Y-1.7084
X2.14Y-1.76
X2.14Y-2.7784
X2.14Y-2.83
X2.14Y-4.26
X2.15Y-2.27
X2.15Y-3.2916
X2.15Y-4.84
X2.15Y-5.6
X2.15Y-5.75
X2.15Y-5.9
X2.15Y-6.05
X2.15Y-6.2
X2.15Y-6.35
X2.15Y-6.5
X2.17Y-4.39
X2.18Y-5.35
X2.18Y-5.55
X2.18Y-5.7
X2.18Y-5.85
X2.18Y-6.0
X2.18Y-6.15
X2.18Y-6.3
X2.18Y-6.45
X2.19Y-4.7
X2.2Y-1.7084
X2.2Y-1.79
X2.2Y-2.7784
X2.2Y-2.86
X2.2Y-3.24
X2.21Y-2.15
X2.22Y-3.89
X2.22Y-4.01
X2.23Y-1.76
X2.23Y-1.91
X2.23Y-2.83
X2.23Y-2.98
X2.28Y-3.92
X2.29Y-1.73
X2.29Y-1.94
X2.29Y-2.8
X2.29Y-3.01
X2.29Y-4.04
X2.3474Y-4.5
X2.3474Y-4.73
X2.35Y-1.82
X2.35Y-1.85
X2.36Y-2.89
X2.36Y-2.92
X2.37Y-3.83
X2.37Y-4.75
X2.4Y-3.86
X2.4Y-4.84
X2.41Y-1.79
X2.41Y-1.88
X2.41Y-2.86
X2.41Y-2.95
X2.43Y-3.89
X2.43Y-4.79
X2.44Y-4.89
X2.46Y-3.92
X2.46Y-4.69
X2.49Y-3.95
X2.49Y-4.44
X2.52Y-3.98
X2.52Y-4.54
X2.53Y-1.76
X2.53Y-1.91
X2.53Y-2.83
X2.53Y-2.98
X2.55Y-4.01
X2.55Y-4.39
X2.58Y-1.94
X2.58Y-4.04
X2.58Y-4.49
X2.59Y-1.73
X2.59Y-2.8
X2.59Y-3.01
X2.65Y-1.82
X2.65Y-1.85
X2.65Y-2.89
X2.65Y-2.92
X2.65Y-5.65
X2.65Y-5.8
X2.65Y-5.95
X2.65Y-6.1
X2.65Y-6.25
X2.65Y-6.4
X2.65Y-6.55
X2.66Y-5.44
X2.71Y-1.79
X2.71Y-1.88
X2.71Y-2.86
X2.71Y-2.95
X2.73Y-5.4133
X2.75Y-5.56
X2.75Y-5.71
X2.75Y-5.86
X2.75Y-6.01
X2.75Y-6.16
X2.75Y-6.31
X2.75Y-6.46
X2.77Y-5.6
X2.77Y-5.75
X2.77Y-5.9
X2.77Y-6.05
X2.77Y-6.2
X2.77Y-6.35
X2.77Y-6.5
X2.79Y-5.3916
X2.8Y-5.55
X2.8Y-5.7
X2.8Y-5.85
X2.8Y-6.0
X2.8Y-6.15
X2.8Y-6.3
X2.8Y-6.45
X2.83Y-1.76
X2.83Y-1.91
X2.83Y-2.83
X2.83Y-2.98
X2.83Y-4.52
X2.83Y-4.72
X2.85Y-5.3716
X2.89Y-1.73
X2.89Y-1.94
X2.89Y-2.8
X2.89Y-3.01
X2.9Y-5.3533
X2.91Y-4.29
X2.93Y-3.37
X2.95Y-4.89
X2.96Y-3.12
X2.96Y-5.3316
X3.0Y-1.53
X3.0Y-2.62
X3.0Y-3.15
X3.02Y-5.31
X3.15Y-2.57
X3.15Y-6.46
X3.16Y-1.73
X3.16Y-1.78
X3.16Y-1.83
X3.16Y-1.88
X3.16Y-2.08
X3.18Y-6.31
X3.21Y-6.16
X3.2163Y-2.65
X3.23Y-6.01
X3.26Y-5.86
X3.2677Y-4.8425
X3.28Y-5.71
X3.31Y-5.56
X3.315Y-4.685
X3.32Y-1.74
X3.3384Y-2.19
X3.3384Y-2.22
X3.3384Y-2.27
X3.3384Y-2.32
X3.3384Y-2.37
X3.3384Y-2.42
X3.3384Y-2.47
X3.3384Y-2.52
X3.36Y-1.83
X3.36Y-2.57
X3.36Y-2.65
X3.36Y-2.81
X3.378Y-4.5394
X3.39Y-3.12
X3.39Y-3.15
X3.39Y-3.37
X3.4567Y-4.3976
X3.48Y-1.88
X3.48Y-2.22
X3.48Y-2.37
X3.49Y-1.72
X3.5Y-2.09
X3.5Y-2.58
X3.5305Y-5.1152
X3.5307Y-5.2686
X3.5472Y-4.2677
X3.5472Y-5.4173
X3.5509Y-4.9761
X3.58Y-2.09
X3.58Y-2.43
X3.58Y-2.58
X3.5827Y-5.5748
X3.6299Y-5.7205
X3.6403Y-2.4003
X3.6472Y-4.1551
X3.68Y-1.97
X3.68Y-2.01
X3.7Y-1.93
X3.7083Y-2.1317
X3.7087Y-5.8819
X3.7616Y-4.0569
X3.7835Y-6.0157
X3.7913Y-3.6693
X3.8Y-3.18
X3.878Y-3.9685
X3.9Y-1.76
X3.937Y-3.6024
X3.94Y-3.09
X3.985Y-2.26
X3.9961Y-5.0276
X4.0197Y-4.9291
X4.02Y-3.26
X4.055Y-2.26
X4.0787Y-5.8937
X4.0906Y-3.5472
X4.0945Y-5.0866
X4.1339Y-4.6063
X4.1417Y-4.3346
X4.1417Y-4.7677
X4.1614Y-4.4488
X4.1723Y-6.0009
X4.1929Y-5.2165
X4.21Y-2.11
X4.22Y-3.09
X4.2244Y-4.2913
X4.2244Y-4.7165
X4.2283Y-4.5709
X4.2283Y-5.1142
X4.248Y-3.5118
X4.252Y-4.8425
X4.27Y-1.76
X4.2847Y-6.1011
X4.31Y-1.52
X4.315Y-5.315
X4.3189Y-2.97
X4.32Y-1.75
X4.32Y-1.95
X4.33Y-2.16
X4.3307Y-5.2126
X4.35Y-3.22
X4.3622Y-5.5118
X4.39Y-1.52
X4.4016Y-3.4961
X4.4055Y-6.189
X4.4094Y-5.5945
X4.41Y-1.74
X4.4213Y-4.2717
X4.43Y-3.09
X4.44Y-1.7
X4.4449Y-4.4055
X4.4488Y-5.2835
X4.47Y-2.02
X4.47Y-2.1
X4.48Y-4.9
X4.49Y-1.96
X4.5Y-3.15
X4.51Y-2.01
X4.52Y-5.05
X4.5236Y-5.563
X4.5276Y-4.2953
X4.53Y-4.61
X4.5394Y-4.1575
X4.5433Y-6.2677
X4.55Y-4.89
X4.5591Y-3.4921
X4.57Y-2.15
X4.57Y-3.09
X4.58Y-4.71
X4.58Y-4.97
X4.63Y-1.69
X4.6339Y-4.2047
X4.6378Y-5.4803
X4.66Y-2.11
X4.66Y-4.5
X4.67Y-2.18
X4.68Y-2.08
X4.6811Y-4.0748
X4.685Y-6.3307
X4.689Y-5.5748
X4.69Y-1.98
X4.69Y-2.05
X4.69Y-2.14
X4.7047Y-3.5118
X4.71Y-3.12
X4.72Y-2.38
X4.73Y-1.37
X4.74Y-4.69
X4.752Y-3.9803
X4.76Y-1.85
X4.76Y-2.3
X4.77Y-5.02
X4.7795Y-5.4685
X4.78Y-1.29
X4.78Y-4.75
X4.81Y-2.14
X4.81Y-4.68
X4.82Y-2.08
X4.8386Y-6.378
X4.84Y-1.85
X4.84Y-2.3
X4.8425Y-3.5433
X4.8425Y-4.0157
X4.8425Y-4.9675
X4.8425Y-5.5512
X4.89Y-4.33
X4.9055Y-5.4291
X4.95Y-2.29
X4.95Y-3.13
X4.9716Y-3.18
X5.0039Y-4.0709
X5.0039Y-6.4094
X5.01Y-3.16
X5.0157Y-5.6496
X5.02Y-3.26
X5.0684Y-3.21
X5.1Y-2.96
X5.1102Y-4.0197
X5.1102Y-5.6654
X5.1102Y-6.1142
X5.1134Y-3.01
X5.13Y-1.04
X5.1339Y-3.4961
X5.1378Y-4.3307
X5.14Y-4.61
X5.1567Y-3.16
X5.16Y-4.97
X5.1654Y-5.5591
X5.1772Y-5.4213
X5.1811Y-4.0866
X5.19Y-5.02
X5.2Y-2.76
X5.2Y-2.81
X5.2Y-2.91
X5.2Y-3.06
X5.23Y-5.07
X5.24Y-4.88
X5.24Y-4.93
X5.25Y-1.92
X5.25Y-4.8
X5.2559Y-3.5709
X5.2598Y-4.2677
X5.2638Y-4.374
X5.2638Y-5.311
X5.2638Y-6.1142
X5.27Y-4.71
X5.2835Y-5.4488
X5.3Y-1.02
X5.3Y-1.28
X5.3Y-4.75
X5.3189Y-5.189
X5.34Y-2.86
X5.34Y-3.1
X5.36Y-0.97
X5.36Y-1.33
X5.3701Y-3.6575
X5.3701Y-5.315
X5.38Y-2.0
X5.3858Y-4.4488
X5.3976Y-4.3425
X5.4055Y-6.1024
X5.4064Y-5.1264
X5.4213Y-4.7205
X5.45Y-1.61
X5.4685Y-4.8465
X5.47Y-2.91
X5.47Y-3.11
X5.4784Y-3.21
X5.4961Y-4.9803
X5.52Y-3.59
X5.5236Y-4.4488
X5.5309Y-5.0209
X5.5384Y-3.16
X5.54Y-2.86
X5.54Y-3.55
X5.5472Y-4.7677
X5.5482Y-4.5982
X5.5512Y-6.0709
X5.5584Y-3.06
X5.5591Y-5.2559
X5.56Y-3.52
X5.58Y-2.76
X5.58Y-2.81
X5.58Y-3.49
X5.5866Y-4.9173
X5.59Y-1.52
X5.59Y-1.84
X5.5945Y-5.0787
X5.62Y-4.72
X5.626Y-3.4764
X5.626Y-4.5827
X5.6339Y-4.4921
X5.6378Y-5.1929
X5.7008Y-6.0197
X5.7402Y-3.5945
X5.77Y-1.21
X5.77Y-1.24
X5.77Y-1.27
X5.8Y-1.17
X5.8425Y-5.9528
X5.8465Y-3.7323
X5.86Y-1.48
X5.86Y-1.87
X5.88Y-1.17
X5.88Y-1.21
X5.88Y-1.27
X5.9213Y-3.8661
X5.94Y-1.48
X5.94Y-1.87
X5.9685Y-5.4921
X5.9843Y-5.8701
X5.9882Y-4.0118
X6.0354Y-4.1535
X6.0643Y-5.3911
X6.0669Y-4.2992
X6.0787Y-4.4409
X6.122Y-5.7638
X6.1535Y-5.2717
X6.2283Y-5.1339
X6.2913Y-4.9921
X6.3386Y-4.8425
X6.3701Y-4.6811
X6.3819Y-4.5118
T2
X1.85Y-2.15
X1.85Y-3.2
X2.11Y-2.15
X2.11Y-3.2
X3.7859Y-2.9392
X3.9259Y-2.9392
X4.0659Y-2.9392
X4.2041Y-2.94
X4.34Y-2.94
X4.57Y-2.73
X4.71Y-2.73
X4.76Y-2.94
X4.84Y-4.76
X5.748Y-0.9744
X5.7972Y-0.9744
X5.8465Y-0.9744
X5.8957Y-0.9744
X5.9449Y-0.9744
X6.07Y-2.09
X6.13Y-3.03
X6.13Y-3.1
X6.13Y-3.16
X6.13Y-3.29
X6.13Y-3.37
X6.1417Y-0.9449
X6.1417Y-0.9843
X6.2Y-3.03
X6.27Y-3.03
X6.3189Y-0.9449
X6.3189Y-0.9843
X6.34Y-3.03
X6.41Y-3.03
X6.43Y-3.49
X6.43Y-3.53
X6.43Y-3.57
X6.43Y-3.61
X6.43Y-3.65
X6.43Y-3.7
X6.43Y-3.75
X6.43Y-3.95
X6.43Y-3.99
X6.48Y-3.03
X6.49Y-3.49
X6.49Y-3.53
X6.49Y-3.57
X6.49Y-3.61
X6.49Y-3.65
X6.49Y-3.7
X6.49Y-3.75
X6.49Y-3.95
X6.49Y-3.99
X6.55Y-3.03
X6.62Y-3.03
X6.62Y-3.53
X6.62Y-3.63
X6.62Y-3.72
X6.62Y-3.81
X6.62Y-3.89
X6.69Y-3.03
X6.69Y-3.11
X6.69Y-3.2
X6.69Y-3.3
X6.69Y-3.37
X6.69Y-3.45
X6.69Y-3.53
X6.69Y-3.63
X6.69Y-3.72
X6.69Y-3.81
X6.69Y-3.89
T3
X4.95Y-2.48
X5.12Y-2.49
X5.22Y-1.1
X5.22Y-1.15
X5.22Y-1.2
X5.26Y-1.1
X5.26Y-1.15
X5.26Y-1.2
X5.3Y-1.1
X5.3Y-1.15
X5.3Y-1.2
X5.78Y-2.35
X5.87Y-2.93
X5.87Y-3.03
T4
X6.116Y-1.5508
X6.116Y-1.6492
X6.1948Y-1.5508
X6.1948Y-1.6492
T5
X4.5904Y-1.04
X4.6904Y-1.04
X4.7904Y-1.04
X4.8904Y-1.04
X6.3078Y-2.0904
X6.3078Y-2.1904
X6.3078Y-2.2904
X6.3078Y-2.3904
T6
X6.3015Y-1.363
X6.3015Y-1.837
T7
X1.0236Y-1.1024
X1.0236Y-6.6142
X6.5354Y-1.1024
X6.5354Y-6.6142
T5
G00X6.1638Y-2.8521
M15
G01X6.1638Y-2.7733
M16
G05
G00X6.3213Y-2.6277
M15
G01X6.2425Y-2.6277
M16
G05
G00X6.4Y-2.8521
M15
G01X6.4Y-2.7733
M16
G05
T0
M30
