%TF.GenerationSoftware,KiCad,Pcbnew,6.0.7-f9a2dced07~116~ubuntu20.04.1*%
%TF.CreationDate,2022-10-07T18:50:10+02:00*%
%TF.ProjectId,dcf77,64636637-372e-46b6-9963-61645f706362,rev?*%
%TF.SameCoordinates,Original*%
%TF.FileFunction,Paste,Top*%
%TF.FilePolarity,Positive*%
%FSLAX46Y46*%
G04 Gerber Fmt 4.6, Leading zero omitted, Abs format (unit mm)*
G04 Created by KiCad (PCBNEW 6.0.7-f9a2dced07~116~ubuntu20.04.1) date 2022-10-07 18:50:10*
%MOMM*%
%LPD*%
G01*
G04 APERTURE LIST*
G04 Aperture macros list*
%AMRoundRect*
0 Rectangle with rounded corners*
0 $1 Rounding radius*
0 $2 $3 $4 $5 $6 $7 $8 $9 X,Y pos of 4 corners*
0 Add a 4 corners polygon primitive as box body*
4,1,4,$2,$3,$4,$5,$6,$7,$8,$9,$2,$3,0*
0 Add four circle primitives for the rounded corners*
1,1,$1+$1,$2,$3*
1,1,$1+$1,$4,$5*
1,1,$1+$1,$6,$7*
1,1,$1+$1,$8,$9*
0 Add four rect primitives between the rounded corners*
20,1,$1+$1,$2,$3,$4,$5,0*
20,1,$1+$1,$4,$5,$6,$7,0*
20,1,$1+$1,$6,$7,$8,$9,0*
20,1,$1+$1,$8,$9,$2,$3,0*%
G04 Aperture macros list end*
%ADD10R,1.100000X4.600000*%
%ADD11R,5.250000X4.550000*%
%ADD12RoundRect,0.250000X0.450000X-0.262500X0.450000X0.262500X-0.450000X0.262500X-0.450000X-0.262500X0*%
%ADD13RoundRect,0.150000X-0.875000X-0.150000X0.875000X-0.150000X0.875000X0.150000X-0.875000X0.150000X0*%
%ADD14RoundRect,0.150000X0.587500X0.150000X-0.587500X0.150000X-0.587500X-0.150000X0.587500X-0.150000X0*%
%ADD15RoundRect,0.250000X-0.475000X0.250000X-0.475000X-0.250000X0.475000X-0.250000X0.475000X0.250000X0*%
%ADD16RoundRect,0.250000X-0.262500X-0.450000X0.262500X-0.450000X0.262500X0.450000X-0.262500X0.450000X0*%
%ADD17RoundRect,0.150000X0.150000X-0.587500X0.150000X0.587500X-0.150000X0.587500X-0.150000X-0.587500X0*%
%ADD18RoundRect,0.250000X-0.250000X-0.475000X0.250000X-0.475000X0.250000X0.475000X-0.250000X0.475000X0*%
%ADD19RoundRect,0.250000X-0.450000X0.262500X-0.450000X-0.262500X0.450000X-0.262500X0.450000X0.262500X0*%
%ADD20RoundRect,0.250000X0.262500X0.450000X-0.262500X0.450000X-0.262500X-0.450000X0.262500X-0.450000X0*%
%ADD21RoundRect,0.250000X0.250000X0.475000X-0.250000X0.475000X-0.250000X-0.475000X0.250000X-0.475000X0*%
%ADD22RoundRect,0.150000X-0.150000X0.587500X-0.150000X-0.587500X0.150000X-0.587500X0.150000X0.587500X0*%
%ADD23RoundRect,0.250000X-1.250000X-0.550000X1.250000X-0.550000X1.250000X0.550000X-1.250000X0.550000X0*%
%ADD24R,1.700000X1.300000*%
%ADD25RoundRect,0.150000X-0.725000X-0.150000X0.725000X-0.150000X0.725000X0.150000X-0.725000X0.150000X0*%
%ADD26RoundRect,0.150000X0.150000X-0.875000X0.150000X0.875000X-0.150000X0.875000X-0.150000X-0.875000X0*%
%ADD27R,2.000000X1.500000*%
%ADD28R,2.000000X3.800000*%
%ADD29RoundRect,0.150000X-0.587500X-0.150000X0.587500X-0.150000X0.587500X0.150000X-0.587500X0.150000X0*%
%ADD30RoundRect,0.250000X0.475000X-0.250000X0.475000X0.250000X-0.475000X0.250000X-0.475000X-0.250000X0*%
%ADD31RoundRect,0.250000X0.550000X-1.250000X0.550000X1.250000X-0.550000X1.250000X-0.550000X-1.250000X0*%
%ADD32R,2.700000X1.500000*%
%ADD33RoundRect,0.250000X-1.950000X-1.000000X1.950000X-1.000000X1.950000X1.000000X-1.950000X1.000000X0*%
%ADD34R,4.500000X2.000000*%
%ADD35RoundRect,0.400000X-0.400000X0.600000X-0.400000X-0.600000X0.400000X-0.600000X0.400000X0.600000X0*%
%ADD36RoundRect,0.075000X-0.662500X-0.075000X0.662500X-0.075000X0.662500X0.075000X-0.662500X0.075000X0*%
%ADD37RoundRect,0.075000X-0.075000X-0.662500X0.075000X-0.662500X0.075000X0.662500X-0.075000X0.662500X0*%
%ADD38R,1.300000X1.900000*%
%ADD39RoundRect,0.400000X0.600000X0.400000X-0.600000X0.400000X-0.600000X-0.400000X0.600000X-0.400000X0*%
G04 APERTURE END LIST*
D10*
%TO.C,U501*%
X166540000Y-92150000D03*
X161460000Y-92150000D03*
D11*
X161225000Y-80575000D03*
X166775000Y-85425000D03*
X161225000Y-85425000D03*
X166775000Y-80575000D03*
%TD*%
D12*
%TO.C,R433*%
X75692000Y-146962500D03*
X75692000Y-145137500D03*
%TD*%
%TO.C,R421*%
X75692000Y-158392500D03*
X75692000Y-156567500D03*
%TD*%
D13*
%TO.C,U405*%
X58088000Y-110363000D03*
X58088000Y-111633000D03*
X58088000Y-112903000D03*
X58088000Y-114173000D03*
X58088000Y-115443000D03*
X58088000Y-116713000D03*
X58088000Y-117983000D03*
X58088000Y-119253000D03*
X58088000Y-120523000D03*
X58088000Y-121793000D03*
X58088000Y-123063000D03*
X58088000Y-124333000D03*
X67388000Y-124333000D03*
X67388000Y-123063000D03*
X67388000Y-121793000D03*
X67388000Y-120523000D03*
X67388000Y-119253000D03*
X67388000Y-117983000D03*
X67388000Y-116713000D03*
X67388000Y-115443000D03*
X67388000Y-114173000D03*
X67388000Y-112903000D03*
X67388000Y-111633000D03*
X67388000Y-110363000D03*
%TD*%
D14*
%TO.C,Q409*%
X73581500Y-147000000D03*
X73581500Y-145100000D03*
X71706500Y-146050000D03*
%TD*%
D15*
%TO.C,C513*%
X149352000Y-26736000D03*
X149352000Y-28636000D03*
%TD*%
D14*
%TO.C,Q404*%
X73581500Y-158430000D03*
X73581500Y-156530000D03*
X71706500Y-157480000D03*
%TD*%
D16*
%TO.C,R519*%
X117705500Y-70866000D03*
X119530500Y-70866000D03*
%TD*%
D17*
%TO.C,Q505*%
X119192000Y-34719500D03*
X121092000Y-34719500D03*
X120142000Y-32844500D03*
%TD*%
%TO.C,D506*%
X148910000Y-46149500D03*
X150810000Y-46149500D03*
X149860000Y-44274500D03*
%TD*%
D18*
%TO.C,C522*%
X127066000Y-26416000D03*
X128966000Y-26416000D03*
%TD*%
D12*
%TO.C,R441*%
X59944000Y-146962500D03*
X59944000Y-145137500D03*
%TD*%
D19*
%TO.C,R438*%
X61976000Y-148947500D03*
X61976000Y-150772500D03*
%TD*%
D20*
%TO.C,R515*%
X105457000Y-70845500D03*
X103632000Y-70845500D03*
%TD*%
D19*
%TO.C,R436*%
X77724000Y-141327500D03*
X77724000Y-143152500D03*
%TD*%
D12*
%TO.C,R417*%
X75692000Y-166012500D03*
X75692000Y-164187500D03*
%TD*%
D21*
%TO.C,C523*%
X109916000Y-53594000D03*
X108016000Y-53594000D03*
%TD*%
D14*
%TO.C,Q401*%
X57833500Y-143190000D03*
X57833500Y-141290000D03*
X55958500Y-142240000D03*
%TD*%
D16*
%TO.C,R512*%
X103632000Y-68813500D03*
X105457000Y-68813500D03*
%TD*%
D18*
%TO.C,C504*%
X161356000Y-98806000D03*
X163256000Y-98806000D03*
%TD*%
D22*
%TO.C,Q501*%
X98382500Y-72956000D03*
X96482500Y-72956000D03*
X97432500Y-74831000D03*
%TD*%
D21*
%TO.C,C1*%
X111694000Y-45720000D03*
X109794000Y-45720000D03*
%TD*%
D19*
%TO.C,R440*%
X61976000Y-145137500D03*
X61976000Y-146962500D03*
%TD*%
D12*
%TO.C,R529*%
X61976000Y-166012500D03*
X61976000Y-164187500D03*
%TD*%
D21*
%TO.C,C510*%
X104836000Y-55880000D03*
X102936000Y-55880000D03*
%TD*%
D23*
%TO.C,C503*%
X151800000Y-82000000D03*
X156200000Y-82000000D03*
%TD*%
D16*
%TO.C,R521*%
X107141000Y-68834000D03*
X108966000Y-68834000D03*
%TD*%
D14*
%TO.C,Q412*%
X57833500Y-150810000D03*
X57833500Y-148910000D03*
X55958500Y-149860000D03*
%TD*%
D16*
%TO.C,R533*%
X121261500Y-70866000D03*
X123086500Y-70866000D03*
%TD*%
D24*
%TO.C,D501*%
X128016000Y-59718000D03*
X128016000Y-63218000D03*
%TD*%
D19*
%TO.C,R418*%
X77724000Y-160377500D03*
X77724000Y-162202500D03*
%TD*%
D14*
%TO.C,Q413*%
X57833500Y-147000000D03*
X57833500Y-145100000D03*
X55958500Y-146050000D03*
%TD*%
D25*
%TO.C,U404*%
X81753000Y-43815000D03*
X81753000Y-45085000D03*
X81753000Y-46355000D03*
X81753000Y-47625000D03*
X81753000Y-48895000D03*
X81753000Y-50165000D03*
X81753000Y-51435000D03*
X81753000Y-52705000D03*
X86903000Y-52705000D03*
X86903000Y-51435000D03*
X86903000Y-50165000D03*
X86903000Y-48895000D03*
X86903000Y-47625000D03*
X86903000Y-46355000D03*
X86903000Y-45085000D03*
X86903000Y-43815000D03*
%TD*%
D20*
%TO.C,R506*%
X101901000Y-76941500D03*
X100076000Y-76941500D03*
%TD*%
D14*
%TO.C,Q408*%
X57833500Y-158430000D03*
X57833500Y-156530000D03*
X55958500Y-157480000D03*
%TD*%
%TO.C,Q402*%
X73581500Y-166050000D03*
X73581500Y-164150000D03*
X71706500Y-165100000D03*
%TD*%
D26*
%TO.C,U402*%
X43307000Y-51386000D03*
X44577000Y-51386000D03*
X45847000Y-51386000D03*
X47117000Y-51386000D03*
X48387000Y-51386000D03*
X49657000Y-51386000D03*
X50927000Y-51386000D03*
X52197000Y-51386000D03*
X53467000Y-51386000D03*
X54737000Y-51386000D03*
X56007000Y-51386000D03*
X57277000Y-51386000D03*
X57277000Y-42086000D03*
X56007000Y-42086000D03*
X54737000Y-42086000D03*
X53467000Y-42086000D03*
X52197000Y-42086000D03*
X50927000Y-42086000D03*
X49657000Y-42086000D03*
X48387000Y-42086000D03*
X47117000Y-42086000D03*
X45847000Y-42086000D03*
X44577000Y-42086000D03*
X43307000Y-42086000D03*
%TD*%
D20*
%TO.C,R537*%
X112418500Y-70866000D03*
X110593500Y-70866000D03*
%TD*%
D22*
%TO.C,Q503*%
X105494500Y-72956000D03*
X103594500Y-72956000D03*
X104544500Y-74831000D03*
%TD*%
D19*
%TO.C,R507*%
X116332000Y-42879000D03*
X116332000Y-44704000D03*
%TD*%
D20*
%TO.C,R409*%
X53236500Y-146050000D03*
X51411500Y-146050000D03*
%TD*%
%TO.C,R523*%
X122832500Y-30734000D03*
X121007500Y-30734000D03*
%TD*%
D14*
%TO.C,Q410*%
X57833500Y-154620000D03*
X57833500Y-152720000D03*
X55958500Y-153670000D03*
%TD*%
D12*
%TO.C,R439*%
X59944000Y-150772500D03*
X59944000Y-148947500D03*
%TD*%
D19*
%TO.C,R516*%
X119126000Y-29059500D03*
X119126000Y-30884500D03*
%TD*%
D16*
%TO.C,R536*%
X110593500Y-68834000D03*
X112418500Y-68834000D03*
%TD*%
D19*
%TO.C,R414*%
X61976000Y-141327500D03*
X61976000Y-143152500D03*
%TD*%
D12*
%TO.C,R435*%
X59944000Y-154582500D03*
X59944000Y-152757500D03*
%TD*%
D14*
%TO.C,Q407*%
X73581500Y-150810000D03*
X73581500Y-148910000D03*
X71706500Y-149860000D03*
%TD*%
D20*
%TO.C,R404*%
X68984500Y-153670000D03*
X67159500Y-153670000D03*
%TD*%
D18*
%TO.C,C403*%
X88966000Y-51562000D03*
X90866000Y-51562000D03*
%TD*%
D20*
%TO.C,R517*%
X121054500Y-36830000D03*
X119229500Y-36830000D03*
%TD*%
D27*
%TO.C,U502*%
X144882000Y-31510000D03*
D28*
X138582000Y-29210000D03*
D27*
X144882000Y-29210000D03*
X144882000Y-26910000D03*
%TD*%
D19*
%TO.C,R532*%
X59944000Y-164187500D03*
X59944000Y-166012500D03*
%TD*%
D18*
%TO.C,C404*%
X88966000Y-64008000D03*
X90866000Y-64008000D03*
%TD*%
D16*
%TO.C,R511*%
X103632000Y-76941500D03*
X105457000Y-76941500D03*
%TD*%
D20*
%TO.C,R401*%
X68984500Y-142240000D03*
X67159500Y-142240000D03*
%TD*%
%TO.C,R413*%
X53236500Y-161290000D03*
X51411500Y-161290000D03*
%TD*%
D16*
%TO.C,R514*%
X114149500Y-76962000D03*
X115974500Y-76962000D03*
%TD*%
D19*
%TO.C,R505*%
X130556000Y-59793500D03*
X130556000Y-61618500D03*
%TD*%
D21*
%TO.C,C512*%
X102169000Y-44704000D03*
X100269000Y-44704000D03*
%TD*%
D16*
%TO.C,R526*%
X121261500Y-76962000D03*
X123086500Y-76962000D03*
%TD*%
D22*
%TO.C,Q510*%
X123124000Y-72976500D03*
X121224000Y-72976500D03*
X122174000Y-74851500D03*
%TD*%
D20*
%TO.C,R509*%
X101901000Y-70845500D03*
X100076000Y-70845500D03*
%TD*%
D29*
%TO.C,Q508*%
X135968500Y-38674000D03*
X135968500Y-40574000D03*
X137843500Y-39624000D03*
%TD*%
D14*
%TO.C,Q406*%
X57833500Y-162240000D03*
X57833500Y-160340000D03*
X55958500Y-161290000D03*
%TD*%
D20*
%TO.C,R534*%
X145692500Y-43688000D03*
X143867500Y-43688000D03*
%TD*%
%TO.C,R406*%
X68984500Y-161290000D03*
X67159500Y-161290000D03*
%TD*%
D18*
%TO.C,C201*%
X130048000Y-121854000D03*
X131948000Y-121854000D03*
%TD*%
D20*
%TO.C,R407*%
X68984500Y-165100000D03*
X67159500Y-165100000D03*
%TD*%
D19*
%TO.C,R424*%
X61976000Y-160377500D03*
X61976000Y-162202500D03*
%TD*%
%TO.C,R428*%
X51308000Y-64873500D03*
X51308000Y-66698500D03*
%TD*%
D20*
%TO.C,R518*%
X108966000Y-76962000D03*
X107141000Y-76962000D03*
%TD*%
D12*
%TO.C,R431*%
X59944000Y-158392500D03*
X59944000Y-156567500D03*
%TD*%
%TO.C,R527*%
X131826000Y-40536500D03*
X131826000Y-38711500D03*
%TD*%
D16*
%TO.C,R513*%
X114149500Y-70866000D03*
X115974500Y-70866000D03*
%TD*%
%TO.C,R508*%
X100076000Y-68813500D03*
X101901000Y-68813500D03*
%TD*%
D30*
%TO.C,C401*%
X49022000Y-66736000D03*
X49022000Y-64836000D03*
%TD*%
D22*
%TO.C,D505*%
X150810000Y-39194500D03*
X148910000Y-39194500D03*
X149860000Y-41069500D03*
%TD*%
D20*
%TO.C,R411*%
X53236500Y-153670000D03*
X51411500Y-153670000D03*
%TD*%
%TO.C,R531*%
X145692500Y-41656000D03*
X143867500Y-41656000D03*
%TD*%
D31*
%TO.C,C517*%
X158250000Y-29950000D03*
X158250000Y-25550000D03*
%TD*%
D19*
%TO.C,R416*%
X77724000Y-164187500D03*
X77724000Y-166012500D03*
%TD*%
D22*
%TO.C,Q502*%
X101938500Y-72956000D03*
X100038500Y-72956000D03*
X100988500Y-74831000D03*
%TD*%
%TO.C,Q504*%
X116012000Y-72976500D03*
X114112000Y-72976500D03*
X115062000Y-74851500D03*
%TD*%
D14*
%TO.C,Q405*%
X73581500Y-154620000D03*
X73581500Y-152720000D03*
X71706500Y-153670000D03*
%TD*%
D19*
%TO.C,R430*%
X61976000Y-156567500D03*
X61976000Y-158392500D03*
%TD*%
D18*
%TO.C,C511*%
X105349000Y-44704000D03*
X107249000Y-44704000D03*
%TD*%
D16*
%TO.C,R502*%
X96520000Y-68813500D03*
X98345000Y-68813500D03*
%TD*%
D15*
%TO.C,C502*%
X125730000Y-59756000D03*
X125730000Y-61656000D03*
%TD*%
D20*
%TO.C,R528*%
X123086500Y-68834000D03*
X121261500Y-68834000D03*
%TD*%
D12*
%TO.C,R530*%
X139954000Y-41552500D03*
X139954000Y-39727500D03*
%TD*%
D20*
%TO.C,R403*%
X68984500Y-149860000D03*
X67159500Y-149860000D03*
%TD*%
D14*
%TO.C,Q509*%
X57833500Y-166050000D03*
X57833500Y-164150000D03*
X55958500Y-165100000D03*
%TD*%
D30*
%TO.C,C521*%
X49276000Y-39812000D03*
X49276000Y-37912000D03*
%TD*%
D16*
%TO.C,R524*%
X51411500Y-165100000D03*
X53236500Y-165100000D03*
%TD*%
D20*
%TO.C,R201*%
X131910500Y-123952000D03*
X130085500Y-123952000D03*
%TD*%
D32*
%TO.C,D502*%
X152000000Y-76400000D03*
X152000000Y-71600000D03*
%TD*%
D20*
%TO.C,R402*%
X68984500Y-146050000D03*
X67159500Y-146050000D03*
%TD*%
%TO.C,R405*%
X68984500Y-157480000D03*
X67159500Y-157480000D03*
%TD*%
D33*
%TO.C,C501*%
X134484000Y-59690000D03*
X142884000Y-59690000D03*
%TD*%
D30*
%TO.C,C508*%
X111506000Y-41844000D03*
X111506000Y-39944000D03*
%TD*%
D12*
%TO.C,R503*%
X109474000Y-41806500D03*
X109474000Y-39981500D03*
%TD*%
D18*
%TO.C,C526*%
X120970000Y-48260000D03*
X122870000Y-48260000D03*
%TD*%
D34*
%TO.C,Y501*%
X106231000Y-59690000D03*
X97731000Y-59690000D03*
%TD*%
D12*
%TO.C,R437*%
X75692000Y-143152500D03*
X75692000Y-141327500D03*
%TD*%
%TO.C,R423*%
X75692000Y-154582500D03*
X75692000Y-152757500D03*
%TD*%
D21*
%TO.C,C507*%
X166812000Y-98806000D03*
X164912000Y-98806000D03*
%TD*%
D19*
%TO.C,R432*%
X77724000Y-145137500D03*
X77724000Y-146962500D03*
%TD*%
%TO.C,R422*%
X77724000Y-152757500D03*
X77724000Y-154582500D03*
%TD*%
D12*
%TO.C,R415*%
X59944000Y-143152500D03*
X59944000Y-141327500D03*
%TD*%
D14*
%TO.C,Q403*%
X73581500Y-162240000D03*
X73581500Y-160340000D03*
X71706500Y-161290000D03*
%TD*%
D22*
%TO.C,Q506*%
X119568000Y-72976500D03*
X117668000Y-72976500D03*
X118618000Y-74851500D03*
%TD*%
D20*
%TO.C,R442*%
X71778500Y-118364000D03*
X69953500Y-118364000D03*
%TD*%
D12*
%TO.C,R425*%
X59944000Y-162202500D03*
X59944000Y-160377500D03*
%TD*%
D18*
%TO.C,C301*%
X145862000Y-74422000D03*
X147762000Y-74422000D03*
%TD*%
D19*
%TO.C,R525*%
X133858000Y-38711500D03*
X133858000Y-40536500D03*
%TD*%
D21*
%TO.C,C506*%
X166812000Y-96774000D03*
X164912000Y-96774000D03*
%TD*%
D20*
%TO.C,R504*%
X98345000Y-70845500D03*
X96520000Y-70845500D03*
%TD*%
D22*
%TO.C,Q507*%
X109003500Y-72976500D03*
X107103500Y-72976500D03*
X108053500Y-74851500D03*
%TD*%
D19*
%TO.C,R434*%
X61976000Y-152757500D03*
X61976000Y-154582500D03*
%TD*%
D15*
%TO.C,C516*%
X136144000Y-30546000D03*
X136144000Y-32446000D03*
%TD*%
D18*
%TO.C,C402*%
X69916000Y-116332000D03*
X71816000Y-116332000D03*
%TD*%
D19*
%TO.C,R427*%
X51562000Y-37949500D03*
X51562000Y-39774500D03*
%TD*%
D26*
%TO.C,U403*%
X43307000Y-78310000D03*
X44577000Y-78310000D03*
X45847000Y-78310000D03*
X47117000Y-78310000D03*
X48387000Y-78310000D03*
X49657000Y-78310000D03*
X50927000Y-78310000D03*
X52197000Y-78310000D03*
X53467000Y-78310000D03*
X54737000Y-78310000D03*
X56007000Y-78310000D03*
X57277000Y-78310000D03*
X57277000Y-69010000D03*
X56007000Y-69010000D03*
X54737000Y-69010000D03*
X53467000Y-69010000D03*
X52197000Y-69010000D03*
X50927000Y-69010000D03*
X49657000Y-69010000D03*
X48387000Y-69010000D03*
X47117000Y-69010000D03*
X45847000Y-69010000D03*
X44577000Y-69010000D03*
X43307000Y-69010000D03*
%TD*%
D19*
%TO.C,R420*%
X77724000Y-156567500D03*
X77724000Y-158392500D03*
%TD*%
D35*
%TO.C,FB502*%
X153000000Y-29850000D03*
X153000000Y-25650000D03*
%TD*%
D20*
%TO.C,R520*%
X119530500Y-76962000D03*
X117705500Y-76962000D03*
%TD*%
%TO.C,R412*%
X53236500Y-157480000D03*
X51411500Y-157480000D03*
%TD*%
D18*
%TO.C,C525*%
X120970000Y-56896000D03*
X122870000Y-56896000D03*
%TD*%
D36*
%TO.C,U503*%
X112169500Y-49828000D03*
X112169500Y-50328000D03*
X112169500Y-50828000D03*
X112169500Y-51328000D03*
X112169500Y-51828000D03*
X112169500Y-52328000D03*
X112169500Y-52828000D03*
X112169500Y-53328000D03*
X112169500Y-53828000D03*
X112169500Y-54328000D03*
X112169500Y-54828000D03*
X112169500Y-55328000D03*
D37*
X113582000Y-56740500D03*
X114082000Y-56740500D03*
X114582000Y-56740500D03*
X115082000Y-56740500D03*
X115582000Y-56740500D03*
X116082000Y-56740500D03*
X116582000Y-56740500D03*
X117082000Y-56740500D03*
X117582000Y-56740500D03*
X118082000Y-56740500D03*
X118582000Y-56740500D03*
X119082000Y-56740500D03*
D36*
X120494500Y-55328000D03*
X120494500Y-54828000D03*
X120494500Y-54328000D03*
X120494500Y-53828000D03*
X120494500Y-53328000D03*
X120494500Y-52828000D03*
X120494500Y-52328000D03*
X120494500Y-51828000D03*
X120494500Y-51328000D03*
X120494500Y-50828000D03*
X120494500Y-50328000D03*
X120494500Y-49828000D03*
D37*
X119082000Y-48415500D03*
X118582000Y-48415500D03*
X118082000Y-48415500D03*
X117582000Y-48415500D03*
X117082000Y-48415500D03*
X116582000Y-48415500D03*
X116082000Y-48415500D03*
X115582000Y-48415500D03*
X115082000Y-48415500D03*
X114582000Y-48415500D03*
X114082000Y-48415500D03*
X113582000Y-48415500D03*
%TD*%
D16*
%TO.C,R535*%
X110593500Y-76962000D03*
X112418500Y-76962000D03*
%TD*%
D20*
%TO.C,R510*%
X103020500Y-53848000D03*
X101195500Y-53848000D03*
%TD*%
%TO.C,R408*%
X53236500Y-142240000D03*
X51411500Y-142240000D03*
%TD*%
D19*
%TO.C,R426*%
X77724000Y-148947500D03*
X77724000Y-150772500D03*
%TD*%
D21*
%TO.C,C518*%
X157414000Y-53086000D03*
X155514000Y-53086000D03*
%TD*%
D13*
%TO.C,U201*%
X118286000Y-115951000D03*
X118286000Y-117221000D03*
X118286000Y-118491000D03*
X118286000Y-119761000D03*
X118286000Y-121031000D03*
X118286000Y-122301000D03*
X118286000Y-123571000D03*
X118286000Y-124841000D03*
X118286000Y-126111000D03*
X118286000Y-127381000D03*
X118286000Y-128651000D03*
X118286000Y-129921000D03*
X127586000Y-129921000D03*
X127586000Y-128651000D03*
X127586000Y-127381000D03*
X127586000Y-126111000D03*
X127586000Y-124841000D03*
X127586000Y-123571000D03*
X127586000Y-122301000D03*
X127586000Y-121031000D03*
X127586000Y-119761000D03*
X127586000Y-118491000D03*
X127586000Y-117221000D03*
X127586000Y-115951000D03*
%TD*%
D22*
%TO.C,Q511*%
X112456000Y-72976500D03*
X110556000Y-72976500D03*
X111506000Y-74851500D03*
%TD*%
D18*
%TO.C,C509*%
X99380000Y-55880000D03*
X101280000Y-55880000D03*
%TD*%
D12*
%TO.C,R429*%
X75692000Y-150772500D03*
X75692000Y-148947500D03*
%TD*%
D30*
%TO.C,C520*%
X141986000Y-41844000D03*
X141986000Y-39944000D03*
%TD*%
D15*
%TO.C,C519*%
X141986000Y-43500000D03*
X141986000Y-45400000D03*
%TD*%
D16*
%TO.C,R501*%
X96520000Y-76941500D03*
X98345000Y-76941500D03*
%TD*%
D20*
%TO.C,R410*%
X53236500Y-149860000D03*
X51411500Y-149860000D03*
%TD*%
D38*
%TO.C,Y502*%
X106509000Y-47168000D03*
X101009000Y-47168000D03*
X101009000Y-50368000D03*
X106509000Y-50368000D03*
%TD*%
D30*
%TO.C,C515*%
X136144000Y-27874000D03*
X136144000Y-25974000D03*
%TD*%
D12*
%TO.C,R419*%
X75692000Y-162202500D03*
X75692000Y-160377500D03*
%TD*%
D18*
%TO.C,C505*%
X161356000Y-96774000D03*
X163256000Y-96774000D03*
%TD*%
D20*
%TO.C,R301*%
X147724500Y-76962000D03*
X145899500Y-76962000D03*
%TD*%
D15*
%TO.C,C514*%
X147320000Y-26736000D03*
X147320000Y-28636000D03*
%TD*%
D20*
%TO.C,R522*%
X108966000Y-70866000D03*
X107141000Y-70866000D03*
%TD*%
D13*
%TO.C,U301*%
X134034000Y-68707000D03*
X134034000Y-69977000D03*
X134034000Y-71247000D03*
X134034000Y-72517000D03*
X134034000Y-73787000D03*
X134034000Y-75057000D03*
X134034000Y-76327000D03*
X134034000Y-77597000D03*
X134034000Y-78867000D03*
X134034000Y-80137000D03*
X134034000Y-81407000D03*
X134034000Y-82677000D03*
X143334000Y-82677000D03*
X143334000Y-81407000D03*
X143334000Y-80137000D03*
X143334000Y-78867000D03*
X143334000Y-77597000D03*
X143334000Y-76327000D03*
X143334000Y-75057000D03*
X143334000Y-73787000D03*
X143334000Y-72517000D03*
X143334000Y-71247000D03*
X143334000Y-69977000D03*
X143334000Y-68707000D03*
%TD*%
D25*
%TO.C,U401*%
X81753000Y-56388000D03*
X81753000Y-57658000D03*
X81753000Y-58928000D03*
X81753000Y-60198000D03*
X81753000Y-61468000D03*
X81753000Y-62738000D03*
X81753000Y-64008000D03*
X81753000Y-65278000D03*
X86903000Y-65278000D03*
X86903000Y-64008000D03*
X86903000Y-62738000D03*
X86903000Y-61468000D03*
X86903000Y-60198000D03*
X86903000Y-58928000D03*
X86903000Y-57658000D03*
X86903000Y-56388000D03*
%TD*%
D21*
%TO.C,C524*%
X111694000Y-48260000D03*
X109794000Y-48260000D03*
%TD*%
D14*
%TO.C,Q411*%
X73581500Y-143190000D03*
X73581500Y-141290000D03*
X71706500Y-142240000D03*
%TD*%
D39*
%TO.C,FB501*%
X151900000Y-88000000D03*
X156100000Y-88000000D03*
%TD*%
M02*
